<svg xmlns="http://www.w3.org/2000/svg" width="85mm" height="85mm" viewBox="0 0 85 85"><g transform="translate(-41.301 2.02)"><circle style="opacity:1;fill:#ff6707;fill-opacity:1;stroke:none;stroke-width:.06225431;stroke-miterlimit:4;stroke-dasharray:none;stroke-dashoffset:0;stroke-opacity:.94901961" cx="116.469" cy="50.568" r="9.647"/><path style="font-style:normal;font-variant:normal;font-weight:400;font-stretch:normal;font-size:50.79999924px;line-height:125%;font-family:Ubuntu;letter-spacing:0;word-spacing:0;fill:#0776ff;fill-opacity:1;stroke:none;stroke-width:.26458332px;stroke-linecap:butt;stroke-linejoin:miter;stroke-opacity:1" d="M68.995 60.16q-.864-2.287-1.626-4.471-.762-2.235-1.575-4.521h-15.95l-3.201 8.991h-5.131q2.032-5.588 3.81-10.312 1.778-4.775 3.454-9.043 1.728-4.267 3.404-8.128 1.676-3.911 3.505-7.721h4.521q1.83 3.81 3.506 7.721 1.676 3.861 3.352 8.128 1.728 4.268 3.506 9.043 1.778 4.724 3.81 10.312zm-4.623-13.056q-1.626-4.42-3.251-8.535-1.575-4.165-3.302-7.975-1.778 3.81-3.404 7.975-1.575 4.115-3.15 8.535zM87.51 20.738c1.39 0 2.575.102 3.557.305 1.016.203 2.058.531 2.464.7l-.864 4.065c-.406-.203-1.312-.531-2.057-.7-.746-.204-1.66-.306-2.744-.306-2.201 0-3.742.61-4.622 1.83-.881 1.185-1.321 2.793-1.321 4.825v2.286h10.16v3.963h-10.16v22.453h-4.725V31.356c0-3.387.83-5.995 2.49-7.824 1.659-1.862 4.267-2.794 7.823-2.794zM105.197 45.63c1.016.78 2.082 1.745 3.2 2.896a45.542 45.542 0 0 1 3.353 3.76 59.34 59.34 0 0 1 3.15 4.063 42.394 42.394 0 0 1 2.489 3.81h-5.538a36.403 36.403 0 0 0-2.489-3.607 42.688 42.688 0 0 0-2.895-3.556 39.063 39.063 0 0 0-3.1-3.15c-1.05-.947-2.048-1.743-2.996-2.387v12.7h-4.725V21.79l4.725-.812v23.84l2.692-2.692c.982-.982 1.947-1.98 2.896-2.997a997.297 997.297 0 0 0 2.692-2.896c.847-.948 1.575-1.778 2.184-2.489h5.538c-.78.847-1.626 1.778-2.54 2.794a218.512 218.512 0 0 1-2.845 3.1l-2.997 3.098c-.983 1.016-1.914 1.981-2.794 2.895z"/><circle cy="40.334" cx="85.333" style="opacity:1;fill:#ff6707;fill-opacity:1;stroke:none;stroke-width:.26458332;stroke-miterlimit:4;stroke-dasharray:none;stroke-dashoffset:0;stroke-opacity:.94901961" r="0"/></g></svg>
